<?xml version="1.0" encoding="utf-8"?>
<!-- Generator: Adobe Illustrator 17.0.2, SVG Export Plug-In . SVG Version: 6.00 Build 0)  -->
<!DOCTYPE svg PUBLIC "-//W3C//DTD SVG 1.1//EN" "http://www.w3.org/Graphics/SVG/1.1/DTD/svg11.dtd">
<svg version="1.1" id="Layer_1" xmlns="http://www.w3.org/2000/svg" xmlns:xlink="http://www.w3.org/1999/xlink" x="0px" y="0px"
	 width="383.528px" height="91.407px" viewBox="0 0 383.528 91.407" enable-background="new 0 0 383.528 91.407"
	 xml:space="preserve">
<g>
	<path fill="#28231D" d="M101.275,9.985v22.147L82.89,9.985H66.72v16.442C63.026,16.153,52.739,8.909,40.067,8.909
		c-15.948,0-28.278,11.611-28.278,26.16v0.143c0,14.549,12.183,26.017,28.131,26.017c12.691,0,23.082-7.356,26.801-17.69v16.615
		h17.13v-23.15l19.196,23.15h15.357V9.985H101.275z M50.773,35.213c0,5.877-4.135,11.181-10.706,11.181
		c-6.645,0-10.853-5.375-10.853-11.324v-0.143c0-5.877,4.135-11.181,10.706-11.181c6.645,0,10.853,5.375,10.853,11.324V35.213z
		 M340.951,9.985h-19.787v49.334L309.72,43.097c6.275-2.939,10.189-8.027,10.189-15.338v-0.143c0-5.16-1.625-8.887-4.725-11.898
		c-3.618-3.512-9.451-5.734-18.606-5.734h-25.251v44.208L252.116,9.626h-17.13l-12.742,29.559c0.221-1.339,0.338-2.713,0.338-4.115
		v-0.143c0-14.549-12.183-26.017-28.131-26.017s-28.279,11.611-28.279,26.16v0.143c0,1.212,0.092,2.4,0.256,3.564
		c-1.905-2.309-4.851-3.824-8.525-4.854c5.538-1.863,9.229-5.519,9.229-11.468v-0.143c0-3.44-1.329-6.021-3.175-7.812
		c-3.027-2.939-7.531-4.515-14.694-4.515h-28.943v50.171h28.648c12.956,0,19.734-5.779,19.85-13.7
		c4.422,8.798,13.97,14.775,25.482,14.775c9.752,0,18.144-4.345,23.199-11.044l-4.297,9.969h18.459l2.658-6.737h18.089l2.733,6.737
		h16.183h2.57h14.707V45.821h3.544h0.147l9.747,14.334h19.123h0.59h18.606c20.895,0,31.379-10.536,31.379-25.372V34.64
		C371.739,19.804,361.476,9.985,340.951,9.985z M137.157,22.671h7.457c3.692,0,5.538,1.218,5.538,3.44v0.143
		c0,2.222-1.771,3.44-5.463,3.44h-7.531V22.671z M151.481,43.814c0,2.15-1.92,3.655-5.685,3.655h-8.639v-7.454h8.712
		c3.766,0,5.612,1.505,5.612,3.655V43.814z M205.158,35.213c0,5.877-4.135,11.181-10.706,11.181
		c-6.645,0-10.853-5.375-10.853-11.324v-0.143c0-5.877,4.134-11.181,10.705-11.181c6.645,0,10.854,5.375,10.854,11.324V35.213z
		 M238.678,41.52l4.725-12.184l4.725,12.184H238.678z M302.706,28.978c0,3.082-2.511,4.874-6.645,4.874h-7.457v-9.819h7.531
		c3.988,0,6.572,1.577,6.572,4.802V28.978z M354.315,35.142c0,7.239-5.094,10.393-12.995,10.393h-2.879V24.606h2.879
		c7.9,0,12.995,3.154,12.995,10.393V35.142z"/>
	<g>
		<g>
			<g>
				<path fill="#28231D" d="M37.892,82.217h-1.528v-9.93l-2.185,6.111h-1.421l-2.185-6.075v9.895h-1.528V69.622h1.954l2.504,7.035
					l2.452-7.035h1.936V82.217z"/>
				<path fill="#28231D" d="M96.059,82.217h-1.634l-1.048-3.251h-4.885l-1.031,3.251h-1.616l4.139-12.595h1.918L96.059,82.217z
					 M92.915,77.474l-2.008-6.235l-1.954,6.235H92.915z"/>
				<path fill="#28231D" d="M152.537,82.217h-1.102l-0.266-1.421c-0.237,0.403-0.604,0.758-1.102,1.066
					c-0.664,0.402-1.362,0.604-2.096,0.604c-1.327,0-2.398-0.402-3.215-1.208c-1.102-1.065-1.652-2.842-1.652-5.329
					c0-2.369,0.568-4.115,1.705-5.241c0.877-0.864,1.948-1.297,3.216-1.297c1.397,0,2.522,0.48,3.375,1.439
					c0.627,0.699,0.965,1.51,1.012,2.434h-1.652c-0.036-0.628-0.279-1.167-0.729-1.617c-0.509-0.509-1.178-0.764-2.007-0.764
					c-0.841,0-1.545,0.29-2.114,0.87c-0.782,0.806-1.172,2.197-1.172,4.175c0,2.049,0.367,3.447,1.102,4.193
					c0.307,0.32,0.622,0.542,0.941,0.666c0.32,0.124,0.717,0.187,1.19,0.187c0.841,0,1.54-0.279,2.096-0.835
					c0.675-0.663,1.012-1.741,1.012-3.233h-3.251v-1.475h4.708V82.217z"/>
			</g>
			<g>
				<path fill="#28231D" d="M243.397,78.234c-0.047,1.22-0.507,2.235-1.377,3.046c-0.871,0.812-1.922,1.217-3.154,1.217
					c-1.243,0-2.327-0.45-3.25-1.35c-0.64-0.627-1.058-1.356-1.253-2.185c-0.195-0.829-0.293-1.83-0.293-3.002
					s0.098-2.173,0.293-3.002c0.195-0.829,0.613-1.557,1.253-2.185c0.923-0.9,2.007-1.35,3.25-1.35c1.232,0,2.28,0.391,3.144,1.172
					c0.865,0.782,1.321,1.783,1.368,3.002h-1.652c-0.036-0.71-0.278-1.303-0.728-1.776c-0.545-0.604-1.256-0.906-2.132-0.906
					c-0.806,0-1.516,0.32-2.132,0.959c-0.319,0.332-0.559,0.758-0.719,1.279c-0.161,0.521-0.252,0.959-0.276,1.315
					c-0.024,0.355-0.036,0.852-0.036,1.492s0.012,1.137,0.036,1.492c0.024,0.355,0.115,0.794,0.276,1.315
					c0.159,0.521,0.4,0.947,0.719,1.279c0.616,0.639,1.326,0.959,2.132,0.959c0.806,0,1.487-0.261,2.043-0.782
					c0.557-0.521,0.841-1.185,0.853-1.99H243.397z"/>
				<path fill="#28231D" d="M299.007,72.932c0.196,0.823,0.294,1.832,0.294,3.028c0,1.197-0.098,2.206-0.294,3.029
					c-0.195,0.823-0.606,1.537-1.234,2.141c-0.936,0.912-2.032,1.368-3.287,1.368s-2.351-0.456-3.286-1.368
					c-0.628-0.604-1.04-1.318-1.235-2.141c-0.195-0.823-0.293-1.832-0.293-3.029c0-1.196,0.098-2.205,0.293-3.028
					c0.195-0.823,0.606-1.537,1.235-2.141c0.935-0.912,2.031-1.368,3.286-1.368s2.351,0.456,3.287,1.368
					C298.4,71.395,298.812,72.109,299.007,72.932z M297.648,77.044c0.012-0.225,0.018-0.586,0.018-1.084
					c0-0.497-0.006-0.858-0.018-1.083c-0.012-0.225-0.044-0.557-0.098-0.995c-0.054-0.438-0.151-0.817-0.294-1.137
					c-0.142-0.32-0.337-0.604-0.585-0.853c-0.616-0.639-1.345-0.959-2.185-0.959s-1.57,0.319-2.184,0.959
					c-0.25,0.249-0.445,0.533-0.586,0.853c-0.143,0.319-0.24,0.699-0.294,1.137c-0.052,0.439-0.086,0.77-0.098,0.995
					c-0.012,0.225-0.018,0.586-0.018,1.083c0,0.497,0.006,0.859,0.018,1.084c0.012,0.225,0.045,0.557,0.098,0.995
					c0.053,0.439,0.151,0.817,0.294,1.137c0.142,0.319,0.337,0.604,0.586,0.852c0.615,0.639,1.344,0.959,2.184,0.959
					s1.57-0.32,2.185-0.959c0.249-0.249,0.444-0.533,0.585-0.852c0.143-0.32,0.24-0.699,0.294-1.137
					C297.604,77.601,297.636,77.269,297.648,77.044z"/>
				<path fill="#28231D" d="M354.838,82.249h-1.528v-9.93l-2.185,6.111h-1.422l-2.184-6.075v9.895h-1.528V69.654h1.954l2.504,7.035
					l2.452-7.035h1.937V82.249z"/>
			</g>
		</g>
		<g>
			<path fill="#28231D" d="M195.275,82.234h-2.629v-2.683h2.629V82.234z"/>
		</g>
	</g>
</g>
</svg>
